<?xml version="1.0" encoding="utf-8"?>
<!-- Generator: Adobe Illustrator 22.1.0, SVG Export Plug-In . SVG Version: 6.00 Build 0)  -->
<svg version="1.1" id="layer_1" xmlns="http://www.w3.org/2000/svg" xmlns:xlink="http://www.w3.org/1999/xlink" x="0px" y="0px"
	 viewBox="0 0 193.9 185.6" style="enable-background:new 0 0 193.9 185.6;" xml:space="preserve">
<style type="text/css">
	.st0{fill:#3088D4;}
	.st1{fill:#FFFFFF;}
	.st2{fill:#959B9E;}
</style>
<g>
	<path class="st0" d="M169.4,111.3c-2.5,13.1-22.8,27.4-46,30.2c-12.1,1.4-24.1,2.8-36.8,2.2c-20.8-1-37.3-5-37.3-5
		c0,2,0.1,4,0.4,5.8c2.7,20.5,20.4,21.8,37.1,22.4c16.9,0.6,31.9-4.2,31.9-4.2l0.7,15.3c0,0-11.8,6.3-32.9,7.5
		c-11.6,0.6-26-0.3-42.8-4.7C7.4,171.1,1.1,132.2,0.2,92.9c-0.3-11.7-0.1-22.7-0.1-31.9c0-40.3,26.4-52.1,26.4-52.1
		C39.7,2.8,62.6,0.2,86.3,0h0.6c23.7,0.2,46.6,2.8,59.9,8.9c0,0,26.4,11.8,26.4,52.1C173.1,60.9,173.5,90.6,169.4,111.3"/>
	<path class="st1" d="M142,64.1v48.8h-19.3V65.5c0-10-4.2-15-12.6-15c-9.3,0-13.9,6-13.9,17.9v25.9H77V68.3
		c0-11.9-4.7-17.9-13.9-17.9c-8.4,0-12.6,5.1-12.6,15v47.3H31.1V64.1c0-10,2.5-17.9,7.6-23.7c5.3-5.9,12.1-8.9,20.7-8.9
		c9.9,0,17.4,3.8,22.3,11.4l4.8,8.1l4.8-8.1c4.9-7.6,12.4-11.4,22.3-11.4c8.5,0,15.4,3,20.7,8.9C139.5,46.2,142,54.1,142,64.1"/>
</g>
<path class="st2" d="M181.8,123.2c-10.5,10.5-25.4,14.2-38.9,10.9c-0.8-0.2-1.6,0-2.1,0.6l-29.9,29.9c-6,1.2-14.8,2.5-24.1,2.2
	c-8.7-0.3-17.6-0.8-24.5-4c0.3-4.7,2.3-9.4,5.9-13l43.9-43.9c0.6-0.6,0.8-1.3,0.6-2.1c-3.3-13.5,0.4-28.3,10.9-38.9
	c12-11.9,29.4-15,44.2-9.2c3.6,1.4,4.5,6,1.8,8.7l-17,17l-6.4,6.4c-0.6,0.6-0.8,1.4-0.6,2.2l2,7.5c0.2,0.8,0.8,1.4,1.6,1.6l7.5,2
	c0.8,0.2,1.6,0,2.2-0.6l6.4-6.4l17-17c2.7-2.7,7.3-1.7,8.7,1.8C196.8,93.8,193.8,111.2,181.8,123.2z"/>
</svg>
