<?xml version="1.0" encoding="utf-8"?>
<!-- Generator: Adobe Illustrator 22.1.0, SVG Export Plug-In . SVG Version: 6.00 Build 0)  -->
<svg version="1.1" id="layer_1" xmlns="http://www.w3.org/2000/svg" xmlns:xlink="http://www.w3.org/1999/xlink" x="0px" y="0px"
	 viewBox="0 0 833.1 185.6" style="enable-background:new 0 0 833.1 185.6;" xml:space="preserve">
<style type="text/css">
	.st0{fill:#333333;}
	.st1{fill:#3088D4;}
	.st2{fill:#FFFFFF;}
	.st3{fill:#959B9E;}
</style>
<g>
	<path class="st0" d="M344.9,41.4c0.9,1.6,1.4,3.1,1.5,4.4c0.2,1.3,0.2,3.2,0.2,5.7v90.1c0,7.5-2.1,11.9-6.2,13.1
		c-2.1,0.6-4.7,1-7.8,1c-3.1,0-5.6-0.3-7.5-0.8c-1.8-0.5-3.2-1.2-4.2-1.9c-1-0.8-1.7-1.8-2.3-3.2c-0.5-1.8-0.8-4.7-0.8-8.4V86.8
		c-2.7,3.4-6.7,8.7-11.9,16c-5.2,7.3-8.5,11.9-9.9,13.7c-1.4,1.8-2.4,3.1-2.9,3.8c-0.5,0.7-1.9,1.7-4,2.9c-2.1,1.2-4.4,1.9-6.8,1.9
		s-4.7-0.6-6.7-1.7s-3.4-2.2-4.3-3.3l-1.3-1.8c-2.2-2.7-6.4-8.5-12.8-17.3s-9.8-13.6-10.4-14.2v54.7c0,2.5-0.1,4.4-0.2,5.6
		c-0.2,1.2-0.7,2.6-1.5,4.1c-1.6,2.9-5.8,4.4-12.7,4.4c-6.6,0-10.7-1.5-12.3-4.4c-0.9-1.5-1.4-2.9-1.5-4.2c-0.2-1.3-0.2-3.2-0.2-5.8
		V51.1c0-2.5,0.1-4.4,0.2-5.6c0.2-1.2,0.7-2.7,1.5-4.3c1.6-2.8,5.8-4.2,12.7-4.2c2.9,0,5.4,0.4,7.5,1.1c2.1,0.7,3.5,1.4,4.1,2.2l1,1
		l36.8,48.4c18.4-24.3,30.7-40.4,36.8-48.2c1.8-2.9,6.2-4.4,13.1-4.4C339.2,37,343.4,38.4,344.9,41.4z"/>
	<path class="st0" d="M413.6,79.3c0.6-6.1,4.9-9.1,12.8-9.1c4.2,0,7.4,0.3,9.4,1c2.1,0.6,3.5,1.8,4.3,3.4s1.3,3.1,1.5,4.3
		c0.2,1.2,0.2,3.1,0.2,5.6v56.8c0,2.5-0.1,4.4-0.2,5.6c-0.2,1.2-0.6,2.7-1.4,4.3c-1.5,2.8-5.2,4.2-11.1,4.2s-9.8-0.7-11.8-2.2
		s-3.2-3.6-3.5-6.4c-4,5.7-10.7,8.6-20,8.6c-9.4,0-18-4.3-26.1-12.8c-8-8.5-12-18.5-12-29.8s4-21.2,12.1-29.7s16.9-12.7,26.5-12.7
		c3.7,0,7,0.6,10.1,1.9c3,1.3,5.1,2.5,6.3,3.7C411.9,77.2,412.9,78.3,413.6,79.3z M384.1,113.1c0,3.6,1.4,6.8,4.2,9.7
		c2.8,2.9,6.2,4.3,10.2,4.3s7.3-1.5,10-4.4s4-6.1,4-9.7c0-3.5-1.3-6.8-3.8-9.8s-6-4.5-10.2-4.5c-4.3,0-7.7,1.5-10.4,4.5
		C385.4,106.2,384.1,109.5,384.1,113.1z"/>
	<path class="st0" d="M453.9,148.2c-2.1-1.3-3.1-3.4-3.1-6.2s2.1-7.1,6.2-12.8c1.2-1.8,3.1-2.8,5.8-2.8c2.7,0,6.3,1.3,10.8,4
		s8.7,4,12.3,4c6.6,0,9.9-1.3,9.9-3.9c0-2.1-3.6-3.6-10.9-4.5c-6.8-1-13.6-3.5-20.3-7.6c-3.1-1.9-5.7-5-7.8-9.2
		c-2.1-4.2-3.1-9.1-3.1-14.9c0-17.1,11.7-25.6,35.2-25.6c7.7,0,15.6,1.8,23.7,5.5c3.8,1.7,5.7,3.9,5.7,6.5s-1.2,5.8-3.6,9.6
		c-2.4,3.8-4.8,5.7-7.3,5.7c-1.3,0-3.7-0.8-7.2-2.4s-7.3-2.4-11.4-2.4c-6.4,0-9.6,1.2-9.6,3.6c0,3.2,3.7,5.4,11,6.3
		c7.1,0.8,14.1,2.8,20.8,6.2c3.1,1.5,5.8,4.1,7.9,7.9c2.1,3.7,3.2,8.4,3.2,14c0,5.6-1.1,10.4-3.2,14.4c-2.1,4-5.1,6.9-8.8,8.8
		c-6.9,3.4-15.6,5-26.1,5C473.5,157.3,463.5,154.2,453.9,148.2z"/>
	<path class="st0" d="M578.1,99l-10.6-0.6v22.4c0,2.9,0.5,5,1.4,6.3s2.7,1.9,5.2,1.9s4.5,0.1,5.8,0.2c1.4,0.2,2.8,0.7,4.3,1.5
		c2.5,1.4,3.7,5,3.7,10.9c0,6.8-1.5,11-4.5,12.5c-1.6,0.8-3.1,1.2-4.3,1.4s-3.1,0.2-5.4,0.2c-11.3,0-19.8-2.5-25.6-7.6
		s-8.8-13.7-8.8-25.8v-24c-2.1,0.3-4.3,0.5-6.7,0.5s-4.4-0.9-5.9-2.8c-1.6-1.8-2.4-5-2.4-9.4s0.3-7.7,0.8-9.7s1.3-3.4,2.3-4.3
		c1.7-1.4,3.9-2.1,6.5-2.1l5.4,0.6V54.5c0-2.5,0.1-4.3,0.2-5.5c0.2-1.2,0.7-2.5,1.5-3.9c1.4-2.7,5.6-4.1,12.5-4.1
		c7.4,0,11.7,2,13.1,6c0.5,1.7,0.8,4.5,0.8,8.3v15.9c4.8-0.4,8.4-0.6,10.8-0.6c2.4,0,4.3,0.1,5.5,0.2c1.2,0.2,2.7,0.7,4.3,1.5
		c2.8,1.4,4.2,5.6,4.2,12.5c0,6.8-1.5,11-4.4,12.5c-1.6,0.8-3.1,1.2-4.3,1.4C582.4,98.9,580.5,99,578.1,99z"/>
	<path class="st0" d="M608.7,81c9.1-8.4,19.5-12.7,31.2-12.7s22,4.2,31,12.6s13.5,19.1,13.5,32.1c0,9-2.3,17-7,23.9
		c-4.7,7-10.3,12.1-17,15.4c-6.7,3.3-13.6,5-20.7,5c-7.1,0-14.1-1.8-20.8-5.3s-12.4-8.7-17-15.6c-4.6-6.9-6.9-14.6-6.9-23.3
		C595.1,100.1,599.6,89.4,608.7,81z M629,124.7c3.5,2.7,7,4,10.6,4s7.1-1.4,10.7-4.1c3.6-2.7,5.4-6.7,5.4-12s-1.7-9.3-5-11.8
		c-3.4-2.6-7-3.9-10.9-3.9s-7.5,1.4-10.9,4.1s-5,6.7-5,11.9C623.8,118.1,625.5,122.1,629,124.7z"/>
	<path class="st0" d="M704.5,81c9.1-8.4,19.5-12.7,31.2-12.7s22,4.2,31,12.6s13.5,19.1,13.5,32.1c0,9-2.3,17-7,23.9
		c-4.7,7-10.3,12.1-17,15.4c-6.7,3.3-13.6,5-20.7,5c-7.1,0-14.1-1.8-20.8-5.3s-12.4-8.7-17-15.6c-4.6-6.9-6.9-14.6-6.9-23.3
		C690.8,100.1,695.4,89.4,704.5,81z M724.8,124.7c3.5,2.7,7,4,10.6,4s7.1-1.4,10.7-4.1c3.6-2.7,5.4-6.7,5.4-12s-1.7-9.3-5-11.8
		c-3.4-2.6-7-3.9-10.9-3.9s-7.5,1.4-10.9,4.1s-5,6.7-5,11.9C719.6,118.1,721.3,122.1,724.8,124.7z"/>
	<path class="st0" d="M789,44.3c0-2.5,0.1-4.4,0.2-5.6c0.2-1.2,0.6-2.7,1.4-4.3c1.5-2.9,5.7-4.4,12.7-4.4c6.6,0,10.7,1.5,12.3,4.4
		c0.9,1.6,1.4,3.1,1.5,4.4c0.2,1.3,0.2,3.2,0.2,5.7v75.2c0,3.9,0.3,6.4,1,7.4c0.6,1,2.1,1.5,4.3,1.5s3.7,0.1,4.5,0.2
		c0.8,0.2,1.7,0.6,2.8,1.4c2.2,1.4,3.2,5.3,3.2,11.5c0,6.8-1.1,11-3.2,12.5c-2.8,1.9-9.5,2.3-20.1,1c-8.3-1.1-13.7-3.8-16.2-8.3
		c-3-5.3-4.5-13.7-4.5-25.3V44.3H789z"/>
</g>
<g>
	<path class="st1" d="M169.4,111.3c-2.5,13.1-22.8,27.4-46,30.2c-12.1,1.4-24.1,2.8-36.8,2.2c-20.8-1-37.3-5-37.3-5
		c0,2,0.1,4,0.4,5.8c2.7,20.5,20.4,21.8,37.1,22.4c16.9,0.6,31.9-4.2,31.9-4.2l0.7,15.3c0,0-11.8,6.3-32.9,7.5
		c-11.6,0.6-26-0.3-42.8-4.7C7.4,171.1,1.1,132.2,0.2,92.9c-0.3-11.7-0.1-22.7-0.1-31.9c0-40.3,26.4-52.1,26.4-52.1
		C39.7,2.8,62.6,0.2,86.3,0h0.6c23.7,0.2,46.6,2.8,59.9,8.9c0,0,26.4,11.8,26.4,52.1C173.1,60.9,173.5,90.6,169.4,111.3"/>
	<path class="st2" d="M142,64.1v48.8h-19.3V65.5c0-10-4.2-15-12.6-15c-9.3,0-13.9,6-13.9,17.9v25.9H77V68.3
		c0-11.9-4.7-17.9-13.9-17.9c-8.4,0-12.6,5.1-12.6,15v47.3H31.1V64.1c0-10,2.5-17.9,7.6-23.7c5.3-5.9,12.1-8.9,20.7-8.9
		c9.9,0,17.4,3.8,22.3,11.4l4.8,8.1l4.8-8.1c4.9-7.6,12.4-11.4,22.3-11.4c8.5,0,15.4,3,20.7,8.9C139.5,46.2,142,54.1,142,64.1"/>
</g>
<path class="st3" d="M181.8,123.2c-10.5,10.5-25.4,14.2-38.9,10.9c-0.8-0.2-1.6,0-2.1,0.6l-29.9,29.9c-6,1.2-14.8,2.5-24.1,2.2
	c-8.7-0.3-17.6-0.8-24.5-4c0.3-4.7,2.3-9.4,5.9-13l43.9-43.9c0.6-0.6,0.8-1.3,0.6-2.1c-3.3-13.5,0.4-28.3,10.9-38.9
	c12-11.9,29.4-15,44.2-9.2c3.6,1.4,4.5,6,1.8,8.7l-17,17l-6.4,6.4c-0.6,0.6-0.8,1.4-0.6,2.2l2,7.5c0.2,0.8,0.8,1.4,1.6,1.6l7.5,2
	c0.8,0.2,1.6,0,2.2-0.6l6.4-6.4l17-17c2.7-2.7,7.3-1.7,8.7,1.8C196.8,93.8,193.8,111.2,181.8,123.2z"/>
</svg>
